# xmcd
#
# Track frame offsets:
#	150
#	15244
#	34037
#	52033
#	71053
#	88618
#	108446
#	126941
#	146414
#	166167
#	183892
#	201584
#	218700
#
# Disc length: 3102 seconds
#
# Revision: 1
# Processed by: cddbd v1.5.2PL0 Copyright (c) Steve Scherf et al.
# Submitted via: audiograbber 1.83.01
#
DISCID=b40c1c0d
DTITLE=Simply Red - 25 The greatest Hits CD1
DYEAR=1900
DGENRE=Pop
TTITLE0=Sunrise
TTITLE1=Stars
TTITLE2=A new flame
TTITLE3=Holding back the years
TTITLE4=It's only love
TTITLE5=The right thing
TTITLE6=Your mirror
TTITLE7=For your babies
TTITLE8=The air that i breathe
TTITLE9=Night nurse
TTITLE10=Ain't that a lot of love
TTITLE11=Fake
TTITLE12=Ev'ry time we say goodbye
EXTD=
EXTT0=
EXTT1=
EXTT2=
EXTT3=
EXTT4=
EXTT5=
EXTT6=
EXTT7=
EXTT8=
EXTT9=
EXTT10=
EXTT11=
EXTT12=
PLAYORDER=
